<svg xmlns="http://www.w3.org/2000/svg" width="24" height="24" viewBox="0 0 24 24">
    <g data-name="그룹 6721">
        <path data-name="패스 9881" d="M-616.522 3136a2.284 2.284 0 0 0-.29 1.1 2.31 2.31 0 0 0 2.311 2.311 2.311 2.311 0 0 0 2.311-2.311 2.3 2.3 0 0 0-.291-1.1" transform="translate(626.39 -3116.433)" style="fill:none;stroke:#2d2a26;stroke-linejoin:round;stroke-width:1.4px"/>
        <path data-name="패스 9882" d="M-600.871 3142.487c-1.817-1.054-3.018-4.814-3.018-6.863v-3.924a7.627 7.627 0 0 0-7.546-7.7h0a7.627 7.627 0 0 0-7.546 7.7v3.921c0 2.049-1.2 5.809-3.018 6.863z" transform="translate(623.422 -3122.92)" style="stroke-linecap:round;fill:none;stroke:#2d2a26;stroke-linejoin:round;stroke-width:1.4px"/>
    </g>
</svg>
